<?xml version="1.0" encoding="UTF-8"?>
<svg width="132px" height="39px" viewBox="0 0 132 39" version="1.1" xmlns="http://www.w3.org/2000/svg" xmlns:xlink="http://www.w3.org/1999/xlink">
    <title>cobbleweb-logo</title>
    <defs>
        <path d="M22.4878411,34.7667937 L22.4878411,28.6707455 C22.4878411,27.8556455 21.8285564,27.1907304 21.0203586,27.1907304 L17.2214354,27.1907304 C16.4132376,27.1907304 15.7532968,26.5258152 15.7532968,25.7107152 L15.7532968,21.8786866 C15.7532968,21.0635866 15.0940121,20.3986714 14.2858143,20.3986714 L10.4862351,20.3986714 C9.67803732,20.3986714 9.0187526,19.7337562 9.0187526,18.9179946 L9.0187526,17.3506473 C9.0187526,16.5355473 9.67803732,15.8706321 10.4862351,15.8706321 L14.2858143,15.8706321 C15.0940121,15.8706321 15.7532968,15.2050554 15.7532968,14.3899554 L15.7532968,10.5579268 C15.7532968,9.74282679 16.4132376,9.07791161 17.2214354,9.07791161 L21.0203586,9.07791161 C21.8285564,9.07791161 22.4878411,8.41299643 22.4878411,7.59789643 L22.4878411,1.50184821 C22.4878411,0.686748214 21.8285564,0.0211714286 21.0203586,0.0211714286 L14.9759313,0.0211714286 C14.1677335,0.0211714286 13.5084488,0.686748214 13.5084488,1.50184821 L13.5084488,5.33321518 C13.5084488,6.14897679 12.849164,6.81389196 12.0409662,6.81389196 L8.24138703,6.81389196 C7.43318924,6.81389196 6.77390452,7.47880714 6.77390452,8.29390714 L6.77390452,12.1259357 C6.77390452,12.9410357 6.1146198,13.6059509 5.305766,13.6059509 L1.50684279,13.6059509 C0.697988999,13.6059509 0.0387042772,14.2708661 0.0387042772,15.0859661 L0.0387042772,21.1820143 C0.0387042772,21.9971143 0.697988999,22.6626911 1.50684279,22.6626911 L5.305766,22.6626911 C6.1146198,22.6626911 6.77390452,23.3276063 6.77390452,24.1427062 L6.77390452,27.9747348 C6.77390452,28.7898348 7.43318924,29.45475 8.24138703,29.45475 L12.0409662,29.45475 C12.849164,29.45475 13.5084488,30.1196652 13.5084488,30.9347652 L13.5084488,34.7667937 C13.5084488,35.5818937 14.1677335,36.2468089 14.9759313,36.2468089 L21.0203586,36.2468089 C21.8285564,36.2468089 22.4878411,35.5818937 22.4878411,34.7667937 Z" id="path-1"></path>
    </defs>
    <g id="Symbols" stroke="none" stroke-width="1" fill="none" fill-rule="evenodd">
        <g id="Navigation-Menu/Solution" transform="translate(-100.000000, -24.000000)">
            <g id="cobbleweb-logo" transform="translate(100.000000, 25.000000)">
                <g id="g5044" transform="translate(65.928472, 19.000000) scale(-1, 1) rotate(-180.000000) translate(-65.928472, -19.000000) ">
                    <g id="g3409-Clipped" transform="translate(0.228755, 0.577110)">
                        <mask id="mask-2" fill="white">
                            <use xlink:href="#path-1"></use>
                        </mask>
                        <g id="path3413"></g>
                        <g id="g3409" mask="url(#mask-2)">
                            <polygon id="path3415" fill="#EC008C" points="13.5084488 27.1907304 22.4880379 27.1907304 22.4880379 36.2470074 13.5084488 36.2470074"></polygon>
                            <polygon id="path3417" fill="#FBC707" points="13.5084488 0.0211714286 22.4880379 0.0211714286 22.4880379 9.07744848 13.5084488 9.07744848"></polygon>
                            <path d="M15.7532968,15.8706321 C15.7532968,12.8517187 15.7532968,9.83280536 15.7532968,6.81389196 C12.7606034,6.81389196 9.76725396,6.81389196 6.77390452,6.81389196 C6.77390452,9.83280536 6.77390452,12.8517187 6.77390452,15.8706321 C9.76725396,15.8706321 12.7606034,15.8706321 15.7532968,15.8706321" id="path3419" fill="#99D420"></path>
                            <path d="M22.1677108,9.4014375 C22.1677108,6.38252411 22.1677108,3.36361071 22.1677108,0.344697321 C19.1743613,0.344697321 16.1810119,0.344697321 13.1883185,0.344697321 C13.1883185,3.36361071 13.1883185,6.38252411 13.1883185,9.4014375 C16.1810119,9.4014375 19.1743613,9.4014375 22.1677108,9.4014375" id="path3421" fill="#F7C808"></path>
                            <path d="M21.8469245,9.72430179 C21.8469245,6.70605 21.8469245,3.68713661 21.8469245,0.668223214 C18.854231,0.668223214 15.8608816,0.668223214 12.8675322,0.668223214 C12.8675322,3.68713661 12.8675322,6.70605 12.8675322,9.72430179 C15.8608816,9.72430179 18.854231,9.72430179 21.8469245,9.72430179" id="path3423" fill="#F2C909"></path>
                            <path d="M21.5261382,10.0484893 C21.5261382,7.02957589 21.5261382,4.0106625 21.5261382,0.991749107 C18.5334447,0.991749107 15.5400953,0.991749107 12.5467459,0.991749107 C12.5467459,4.0106625 12.5467459,7.02957589 12.5467459,10.0484893 C15.5400953,10.0484893 18.5334447,10.0484893 21.5261382,10.0484893" id="path3425" fill="#EDCA0A"></path>
                            <path d="M21.2053519,10.3720152 C21.2053519,7.35310179 21.2053519,4.33418839 21.2053519,1.315275 C18.2126585,1.315275 15.219309,1.315275 12.2259596,1.315275 C12.2259596,4.33418839 12.2259596,7.35310179 12.2259596,10.3720152 C15.219309,10.3720152 18.2126585,10.3720152 21.2053519,10.3720152" id="path3427" fill="#E9CB0B"></path>
                            <path d="M20.8852216,10.6948795 C20.8852216,7.67596607 20.8852216,4.65705268 20.8852216,1.63880089 C17.8918722,1.63880089 14.8985227,1.63880089 11.9051733,1.63880089 C11.9051733,4.65705268 11.9051733,7.67596607 11.9051733,10.6948795 C14.8985227,10.6948795 17.8918722,10.6948795 20.8852216,10.6948795" id="path3429" fill="#E4CC0D"></path>
                            <path d="M20.5644353,11.0184054 C20.5644353,7.99949196 20.5644353,4.98057857 20.5644353,1.96232679 C17.5710859,1.96232679 14.5777364,1.96232679 11.584387,1.96232679 C11.584387,4.98057857 11.584387,7.99949196 11.584387,11.0184054 C14.5777364,11.0184054 17.5710859,11.0184054 20.5644353,11.0184054" id="path3431" fill="#DFCB0E"></path>
                            <path d="M20.243649,11.3419313 C20.243649,8.32301786 20.243649,5.30410446 20.243649,2.28585268 C17.2502996,2.28585268 14.2569501,2.28585268 11.2636007,2.28585268 C11.2636007,5.30410446 11.2636007,8.32301786 11.2636007,11.3419313 C14.2569501,11.3419313 17.2502996,11.3419313 20.243649,11.3419313" id="path3433" fill="#DDCE0E"></path>
                            <path d="M19.9228627,11.6654571 C19.9228627,8.64654375 19.9228627,5.62763036 19.9228627,2.60871696 C16.9295133,2.60871696 13.9361638,2.60871696 10.9428144,2.60871696 C10.9428144,5.62763036 10.9428144,8.64654375 10.9428144,11.6654571 C13.9361638,11.6654571 16.9295133,11.6654571 19.9228627,11.6654571" id="path3435" fill="#D8CD10"></path>
                            <path d="M19.6020764,11.988983 C19.6020764,8.97006964 19.6020764,5.95115625 19.6020764,2.93224286 C16.608727,2.93224286 13.6153775,2.93224286 10.6226841,2.93224286 C10.6226841,5.95115625 10.6226841,8.97006964 10.6226841,11.988983 C13.6153775,11.988983 16.608727,11.988983 19.6020764,11.988983" id="path3437" fill="#D3CD11"></path>
                            <path d="M19.2812901,12.3125089 C19.2812901,9.29359554 19.2812901,6.27468214 19.2812901,3.25576875 C16.2885967,3.25576875 13.2952472,3.25576875 10.3018978,3.25576875 C10.3018978,6.27468214 10.3018978,9.29359554 10.3018978,12.3125089 C13.2952472,12.3125089 16.2885967,12.3125089 19.2812901,12.3125089" id="path3439" fill="#CECE12"></path>
                            <path d="M18.9605038,12.6353732 C18.9605038,9.61712143 18.9605038,6.59820804 18.9605038,3.57929464 C15.9678104,3.57929464 12.9744609,3.57929464 9.98111149,3.57929464 C9.98111149,6.59820804 9.98111149,9.61712143 9.98111149,12.6353732 C12.9744609,12.6353732 15.9678104,12.6353732 18.9605038,12.6353732" id="path3441" fill="#C9CF13"></path>
                            <path d="M18.6397175,12.9595607 C18.6397175,9.94064732 18.6397175,6.92173393 18.6397175,3.90282054 C15.6470241,3.90282054 12.6536746,3.90282054 9.66032519,3.90282054 C9.66032519,6.92173393 9.66032519,9.94064732 9.66032519,12.9595607 C12.6536746,12.9595607 15.6470241,12.9595607 18.6397175,12.9595607" id="path3443" fill="#C4CF14"></path>
                            <path d="M18.3189312,13.2830866 C18.3189312,10.2641732 18.3189312,7.24525982 18.3189312,4.22634643 C15.3262378,4.22634643 12.3328883,4.22634643 9.3395389,4.22634643 C9.3395389,7.24525982 9.3395389,10.2641732 9.3395389,13.2830866 C12.3328883,13.2830866 15.3262378,13.2830866 18.3189312,13.2830866" id="path3445" fill="#BFD016"></path>
                            <path d="M17.9988009,13.6059509 C17.9988009,10.5870375 17.9988009,7.56812411 17.9988009,4.54987232 C15.0054515,4.54987232 12.012102,4.54987232 9.0187526,4.54987232 C9.0187526,7.56812411 9.0187526,10.5870375 9.0187526,13.6059509 C12.012102,13.6059509 15.0054515,13.6059509 17.9988009,13.6059509" id="path3447" fill="#BAD017"></path>
                            <path d="M17.6780146,13.9294768 C17.6780146,10.9105634 17.6780146,7.89231161 17.6780146,4.87339821 C14.6846652,4.87339821 11.6913157,4.87339821 8.6979663,4.87339821 C8.6979663,7.89231161 8.6979663,10.9105634 8.6979663,13.9294768 C11.6913157,13.9294768 14.6846652,13.9294768 17.6780146,13.9294768" id="path3449" fill="#B5D118"></path>
                            <path d="M17.3572283,14.2530027 C17.3572283,11.2340893 17.3572283,8.21517589 17.3572283,5.19692411 C14.3638789,5.19692411 11.3705294,5.19692411 8.37718,5.19692411 C8.37718,8.21517589 8.37718,11.2340893 8.37718,14.2530027 C11.3705294,14.2530027 14.3638789,14.2530027 17.3572283,14.2530027" id="path3451" fill="#B0D11A"></path>
                            <path d="M17.036442,14.5765286 C17.036442,11.5576152 17.036442,8.53870179 17.036442,5.51978839 C14.0430926,5.51978839 11.0503992,5.51978839 8.05704971,5.51978839 C8.05704971,8.53870179 8.05704971,11.5576152 8.05704971,14.5765286 C11.0503992,14.5765286 14.0430926,14.5765286 17.036442,14.5765286" id="path3453" fill="#ABD21B"></path>
                            <path d="M16.7156557,14.9000545 C16.7156557,11.8811411 16.7156557,8.86222768 16.7156557,5.84331429 C13.7229623,5.84331429 10.7296129,5.84331429 7.73626341,5.84331429 C7.73626341,8.86222768 7.73626341,11.8811411 7.73626341,14.9000545 C10.7296129,14.9000545 13.7229623,14.9000545 16.7156557,14.9000545" id="path3455" fill="#A6D21C"></path>
                            <path d="M16.3948694,15.2235804 C16.3948694,12.204667 16.3948694,9.18575357 16.3948694,6.16684018 C13.402176,6.16684018 10.4088266,6.16684018 7.41547711,6.16684018 C7.41547711,9.18575357 7.41547711,12.204667 7.41547711,15.2235804 C10.4088266,15.2235804 13.402176,15.2235804 16.3948694,15.2235804" id="path3457" fill="#A3D31D"></path>
                            <path d="M16.0747391,15.5464446 C16.0747391,12.5281929 16.0747391,9.50927946 16.0747391,6.49036607 C13.0813897,6.49036607 10.0880403,6.49036607 7.09469082,6.49036607 C7.09469082,9.50927946 7.09469082,12.5281929 7.09469082,15.5464446 C10.0880403,15.5464446 13.0813897,15.5464446 16.0747391,15.5464446" id="path3459" fill="#9ED31F"></path>
                            <path d="M15.7532968,15.8706321 C15.7532968,12.8517187 15.7532968,9.83280536 15.7532968,6.81389196 C12.7606034,6.81389196 9.76725396,6.81389196 6.77390452,6.81389196 C6.77390452,9.83280536 6.77390452,12.8517187 6.77390452,15.8706321 C9.76725396,15.8706321 12.7606034,15.8706321 15.7532968,15.8706321" id="path3461" fill="#99D420"></path>
                            <path d="M15.7532968,29.45475 C15.7532968,26.4358366 15.7532968,23.4175848 15.7532968,20.3986714 C12.7606034,20.3986714 9.76725396,20.3986714 6.77390452,20.3986714 C6.77390452,23.4175848 6.77390452,26.4358366 6.77390452,29.45475 C9.76725396,29.45475 12.7606034,29.45475 15.7532968,29.45475" id="path3463" fill="#A0148E"></path>
                            <path d="M22.1677108,35.923283 C22.1677108,32.9043696 22.1677108,29.8854563 22.1677108,26.8672045 C19.1743613,26.8672045 16.1810119,26.8672045 13.1883185,26.8672045 C13.1883185,29.8854563 13.1883185,32.9043696 13.1883185,35.923283 C16.1810119,35.923283 19.1743613,35.923283 22.1677108,35.923283" id="path3465" fill="#E8018C"></path>
                            <path d="M21.8469245,35.6004188 C21.8469245,32.5815054 21.8469245,29.562592 21.8469245,26.5436786 C18.854231,26.5436786 15.8608816,26.5436786 12.8675322,26.5436786 C12.8675322,29.562592 12.8675322,32.5815054 12.8675322,35.6004188 C15.8608816,35.6004188 18.854231,35.6004188 21.8469245,35.6004188" id="path3467" fill="#E4028C"></path>
                            <path d="M21.5261382,35.2768929 C21.5261382,32.2579795 21.5261382,29.2390661 21.5261382,26.2201527 C18.5334447,26.2201527 15.5400953,26.2201527 12.5467459,26.2201527 C12.5467459,29.2390661 12.5467459,32.2579795 12.5467459,35.2768929 C15.5400953,35.2768929 18.5334447,35.2768929 21.5261382,35.2768929" id="path3469" fill="#E1038C"></path>
                            <path d="M21.2053519,34.953367 C21.2053519,31.9344536 21.2053519,28.9155402 21.2053519,25.8972884 C18.2126585,25.8972884 15.219309,25.8972884 12.2259596,25.8972884 C12.2259596,28.9155402 12.2259596,31.9344536 12.2259596,34.953367 C15.219309,34.953367 18.2126585,34.953367 21.2053519,34.953367" id="path3471" fill="#DD048C"></path>
                            <path d="M20.8852216,34.6298411 C20.8852216,31.6109277 20.8852216,28.5920143 20.8852216,25.5737625 C17.8918722,25.5737625 14.8985227,25.5737625 11.9051733,25.5737625 C11.9051733,28.5920143 11.9051733,31.6109277 11.9051733,34.6298411 C14.8985227,34.6298411 17.8918722,34.6298411 20.8852216,34.6298411" id="path3473" fill="#D9058D"></path>
                            <path d="M20.5644353,34.3063152 C20.5644353,31.2880634 20.5644353,28.2684884 20.5644353,25.249575 C17.5710859,25.249575 14.5777364,25.249575 11.584387,25.249575 C11.584387,28.2684884 11.584387,31.2880634 11.584387,34.3063152 C14.5777364,34.3063152 17.5710859,34.3063152 20.5644353,34.3063152" id="path3475" fill="#D5068D"></path>
                            <path d="M20.243649,33.9827893 C20.243649,30.9645375 20.243649,27.9456241 20.243649,24.9267107 C17.2502996,24.9267107 14.2569501,24.9267107 11.2636007,24.9267107 C11.2636007,27.9456241 11.2636007,30.9645375 11.2636007,33.9827893 C14.2569501,33.9827893 17.2502996,33.9827893 20.243649,33.9827893" id="path3477" fill="#D3068D"></path>
                            <path d="M19.9228627,33.6592634 C19.9228627,30.6410116 19.9228627,27.6220982 19.9228627,24.6031848 C16.9295133,24.6031848 13.9361638,24.6031848 10.9428144,24.6031848 C10.9428144,27.6220982 10.9428144,30.6410116 10.9428144,33.6592634 C13.9361638,33.6592634 16.9295133,33.6592634 19.9228627,33.6592634" id="path3479" fill="#D0078D"></path>
                            <path d="M19.6020764,33.3357375 C19.6020764,30.3174857 19.6020764,27.2985723 19.6020764,24.2796589 C16.608727,24.2796589 13.6153775,24.2796589 10.6226841,24.2796589 C10.6226841,27.2985723 10.6226841,30.3174857 10.6226841,33.3357375 C13.6153775,33.3357375 16.608727,33.3357375 19.6020764,33.3357375" id="path3481" fill="#CC088D"></path>
                            <path d="M19.2812901,33.0128732 C19.2812901,29.9939598 19.2812901,26.9750464 19.2812901,23.956133 C16.2885967,23.956133 13.2952472,23.956133 10.3018978,23.956133 C10.3018978,26.9750464 10.3018978,29.9939598 10.3018978,33.0128732 C13.2952472,33.0128732 16.2885967,33.0128732 19.2812901,33.0128732" id="path3483" fill="#C8098D"></path>
                            <path d="M18.9605038,32.6893473 C18.9605038,29.6704339 18.9605038,26.6515205 18.9605038,23.6326071 C15.9678104,23.6326071 12.9744609,23.6326071 9.98111149,23.6326071 C9.98111149,26.6515205 9.98111149,29.6704339 9.98111149,32.6893473 C12.9744609,32.6893473 15.9678104,32.6893473 18.9605038,32.6893473" id="path3485" fill="#C40A8D"></path>
                            <path d="M18.6397175,32.3658214 C18.6397175,29.346908 18.6397175,26.3279946 18.6397175,23.3097429 C15.6470241,23.3097429 12.6536746,23.3097429 9.66032519,23.3097429 C9.66032519,26.3279946 9.66032519,29.346908 9.66032519,32.3658214 C12.6536746,32.3658214 15.6470241,32.3658214 18.6397175,32.3658214" id="path3487" fill="#C00B8D"></path>
                            <path d="M18.3189312,32.0422955 C18.3189312,29.0233821 18.3189312,26.0044688 18.3189312,22.986217 C15.3262378,22.986217 12.3328883,22.986217 9.3395389,22.986217 C9.3395389,26.0044688 9.3395389,29.0233821 9.3395389,32.0422955 C12.3328883,32.0422955 15.3262378,32.0422955 18.3189312,32.0422955" id="path3489" fill="#BD0C8D"></path>
                            <path d="M17.9988009,31.7187696 C17.9988009,28.6998562 17.9988009,25.6809429 17.9988009,22.6626911 C15.0054515,22.6626911 12.012102,22.6626911 9.0187526,22.6626911 C9.0187526,25.6809429 9.0187526,28.6998562 9.0187526,31.7187696 C12.012102,31.7187696 15.0054515,31.7187696 17.9988009,31.7187696" id="path3491" fill="#B90D8E"></path>
                            <path d="M17.6780146,31.3959054 C17.6780146,28.376992 17.6780146,25.3580786 17.6780146,22.3391652 C14.6846652,22.3391652 11.6913157,22.3391652 8.6979663,22.3391652 C8.6979663,25.3580786 8.6979663,28.376992 8.6979663,31.3959054 C11.6913157,31.3959054 14.6846652,31.3959054 17.6780146,31.3959054" id="path3493" fill="#B50E8E"></path>
                            <path d="M17.3572283,31.0717179 C17.3572283,28.0534661 17.3572283,25.0345527 17.3572283,22.0156393 C14.3638789,22.0156393 11.3705294,22.0156393 8.37718,22.0156393 C8.37718,25.0345527 8.37718,28.0534661 8.37718,31.0717179 C11.3705294,31.0717179 14.3638789,31.0717179 17.3572283,31.0717179" id="path3495" fill="#B10F8E"></path>
                            <path d="M17.036442,30.748192 C17.036442,27.7299402 17.036442,24.7110268 17.036442,21.6921134 C14.0430926,21.6921134 11.0503992,21.6921134 8.05704971,21.6921134 C8.05704971,24.7110268 8.05704971,27.7299402 8.05704971,30.748192 C11.0503992,30.748192 14.0430926,30.748192 17.036442,30.748192" id="path3497" fill="#AD108E"></path>
                            <path d="M16.7156557,30.4253277 C16.7156557,27.4064143 16.7156557,24.3875009 16.7156557,21.3685875 C13.7229623,21.3685875 10.7296129,21.3685875 7.73626341,21.3685875 C7.73626341,24.3875009 7.73626341,27.4064143 7.73626341,30.4253277 C10.7296129,30.4253277 13.7229623,30.4253277 16.7156557,30.4253277" id="path3499" fill="#A9118E"></path>
                            <path d="M16.3948694,30.1018018 C16.3948694,27.0828884 16.3948694,24.063975 16.3948694,21.0450616 C13.402176,21.0450616 10.4088266,21.0450616 7.41547711,21.0450616 C7.41547711,24.063975 7.41547711,27.0828884 7.41547711,30.1018018 C10.4088266,30.1018018 13.402176,30.1018018 16.3948694,30.1018018" id="path3501" fill="#A8128E"></path>
                            <path d="M16.0747391,29.7782759 C16.0747391,26.7593625 16.0747391,23.7411107 16.0747391,20.7221973 C13.0813897,20.7221973 10.0880403,20.7221973 7.09469082,20.7221973 C7.09469082,23.7411107 7.09469082,26.7593625 7.09469082,29.7782759 C10.0880403,29.7782759 13.0813897,29.7782759 16.0747391,29.7782759" id="path3503" fill="#A4138E"></path>
                            <path d="M15.7532968,29.45475 C15.7532968,26.4358366 15.7532968,23.4175848 15.7532968,20.3986714 C12.7606034,20.3986714 9.76725396,20.3986714 6.77390452,20.3986714 C6.77390452,23.4175848 6.77390452,26.4358366 6.77390452,29.45475 C9.76725396,29.45475 12.7606034,29.45475 15.7532968,29.45475" id="path3505" fill="#A0148E"></path>
                            <polygon id="path3507" fill="#0994DC" points="0.0387042772 13.6059509 9.01829339 13.6059509 9.01829339 22.6622279 0.0387042772 22.6622279"></polygon>
                            <path d="M15.4331665,29.1312241 C15.4331665,26.1123107 15.4331665,23.0933973 15.4331665,20.0751455 C12.4398171,20.0751455 9.44646766,20.0751455 6.45311822,20.0751455 C6.45311822,23.0933973 6.45311822,26.1123107 6.45311822,29.1312241 C9.44646766,29.1312241 12.4398171,29.1312241 15.4331665,29.1312241" id="path3509" fill="#9A1D93"></path>
                            <path d="M15.1123802,28.8083598 C15.1123802,25.7894464 15.1123802,22.770533 15.1123802,19.7516196 C12.1190308,19.7516196 9.12568136,19.7516196 6.13233192,19.7516196 C6.13233192,22.770533 6.13233192,25.7894464 6.13233192,28.8083598 C9.12568136,28.8083598 12.1190308,28.8083598 15.1123802,28.8083598" id="path3511" fill="#942496"></path>
                            <path d="M14.7915939,28.4848339 C14.7915939,25.4659205 14.7915939,22.4470071 14.7915939,19.4280937 C11.7982445,19.4280937 8.80489507,19.4280937 5.81154563,19.4280937 C5.81154563,22.4470071 5.81154563,25.4659205 5.81154563,28.4848339 C8.80489507,28.4848339 11.7982445,28.4848339 14.7915939,28.4848339" id="path3513" fill="#8E2D9A"></path>
                            <path d="M14.4708076,28.1606464 C14.4708076,25.1423946 14.4708076,22.1234813 14.4708076,19.1045679 C11.4774582,19.1045679 8.48476477,19.1045679 5.49141533,19.1045679 C5.49141533,22.1234813 5.49141533,25.1423946 5.49141533,28.1606464 C8.48476477,28.1606464 11.4774582,28.1606464 14.4708076,28.1606464" id="path3515" fill="#87369F"></path>
                            <path d="M14.1500214,27.8377821 C14.1500214,24.8188687 14.1500214,21.7999554 14.1500214,18.7817036 C11.1573279,18.7817036 8.16397848,18.7817036 5.17062904,18.7817036 C5.17062904,21.7999554 5.17062904,24.8188687 5.17062904,27.8377821 C8.16397848,27.8377821 11.1573279,27.8377821 14.1500214,27.8377821" id="path3517" fill="#803EA3"></path>
                            <path d="M13.8292351,27.5142562 C13.8292351,24.4953429 13.8292351,21.4764295 13.8292351,18.4575161 C10.8365416,18.4575161 7.84319218,18.4575161 4.84984274,18.4575161 C4.84984274,21.4764295 4.84984274,24.4953429 4.84984274,27.5142562 C7.84319218,27.5142562 10.8365416,27.5142562 13.8292351,27.5142562" id="path3519" fill="#7B46A7"></path>
                            <path d="M13.5084488,27.1907304 C13.5084488,24.171817 13.5084488,21.1529036 13.5084488,18.1339902 C10.5157553,18.1339902 7.52240588,18.1339902 4.52905644,18.1339902 C4.52905644,21.1529036 4.52905644,24.171817 4.52905644,27.1907304 C7.52240588,27.1907304 10.5157553,27.1907304 13.5084488,27.1907304" id="path3521" fill="#754DAB"></path>
                            <path d="M13.1883185,26.8672045 C13.1883185,23.8482911 13.1883185,20.8293777 13.1883185,17.8111259 C10.194969,17.8111259 7.20161958,17.8111259 4.20827014,17.8111259 C4.20827014,20.8293777 4.20827014,23.8482911 4.20827014,26.8672045 C7.20161958,26.8672045 10.194969,26.8672045 13.1883185,26.8672045" id="path3523" fill="#6E53AE"></path>
                            <path d="M12.8675322,26.5436786 C12.8675322,23.5247652 12.8675322,20.5065134 12.8675322,17.4876 C9.87418273,17.4876 6.88083328,17.4876 3.88748384,17.4876 C3.88748384,20.5065134 3.88748384,23.5247652 3.88748384,26.5436786 C6.88083328,26.5436786 9.87418273,26.5436786 12.8675322,26.5436786" id="path3525" fill="#665AB2"></path>
                            <path d="M12.5467459,26.2201527 C12.5467459,23.2019009 12.5467459,20.1829875 12.5467459,17.1640741 C9.55339643,17.1640741 6.56004699,17.1640741 3.56669755,17.1640741 C3.56669755,20.1829875 3.56669755,23.2019009 3.56669755,26.2201527 C6.56004699,26.2201527 9.55339643,26.2201527 12.5467459,26.2201527" id="path3527" fill="#5F61B6"></path>
                            <path d="M12.2259596,25.8972884 C12.2259596,22.878375 12.2259596,19.8594616 12.2259596,16.8405482 C9.23261013,16.8405482 6.23926069,16.8405482 3.24591125,16.8405482 C3.24591125,19.8594616 3.24591125,22.878375 3.24591125,25.8972884 C6.23926069,25.8972884 9.23261013,25.8972884 12.2259596,25.8972884" id="path3529" fill="#5767BA"></path>
                            <path d="M11.9051733,25.5737625 C11.9051733,22.5548491 11.9051733,19.5359357 11.9051733,16.5170223 C8.91247984,16.5170223 5.9191304,16.5170223 2.92512495,16.5170223 C2.92512495,19.5359357 2.92512495,22.5548491 2.92512495,25.5737625 C5.9191304,25.5737625 8.91247984,25.5737625 11.9051733,25.5737625" id="path3531" fill="#506BBD"></path>
                            <path d="M11.584387,25.249575 C11.584387,22.2313232 11.584387,19.2124098 11.584387,16.1934964 C8.59103753,16.1934964 5.5983441,16.1934964 2.60499466,16.1934964 C2.60499466,19.2124098 2.60499466,22.2313232 2.60499466,25.249575 C5.5983441,25.249575 8.59103753,25.249575 11.584387,25.249575" id="path3533" fill="#4B71C1"></path>
                            <path d="M11.2636007,24.9267107 C11.2636007,21.9077973 11.2636007,18.8888839 11.2636007,15.8706321 C8.27090724,15.8706321 5.2775578,15.8706321 2.28420836,15.8706321 C2.28420836,18.8888839 2.28420836,21.9077973 2.28420836,24.9267107 C5.2775578,24.9267107 8.27090724,24.9267107 11.2636007,24.9267107" id="path3535" fill="#4277C4"></path>
                            <path d="M10.9428144,24.6031848 C10.9428144,21.5842714 10.9428144,18.565358 10.9428144,15.5464446 C7.95012094,15.5464446 4.9567715,15.5464446 1.96342206,15.5464446 C1.96342206,18.565358 1.96342206,21.5842714 1.96342206,24.6031848 C4.9567715,24.6031848 7.95012094,24.6031848 10.9428144,24.6031848" id="path3537" fill="#3A7CC8"></path>
                            <path d="M10.6226841,24.2796589 C10.6226841,21.2607455 10.6226841,18.2418321 10.6226841,15.2229187 C7.62933465,15.2229187 4.63598521,15.2229187 1.64263577,15.2229187 C1.64263577,18.2418321 1.64263577,21.2607455 1.64263577,24.2796589 C4.63598521,24.2796589 7.62933465,24.2796589 10.6226841,24.2796589" id="path3539" fill="#3281CC"></path>
                            <path d="M10.3018978,23.956133 C10.3018978,20.9372196 10.3018978,17.9189679 10.3018978,14.9000545 C7.30854835,14.9000545 4.31519891,14.9000545 1.32184947,14.9000545 C1.32184947,17.9189679 1.32184947,20.9372196 1.32184947,23.956133 C4.31519891,23.956133 7.30854835,23.956133 10.3018978,23.956133" id="path3541" fill="#2A86CF"></path>
                            <path d="M9.98111149,23.6326071 C9.98111149,20.6136937 9.98111149,17.595442 9.98111149,14.5765286 C6.98776205,14.5765286 3.99441261,14.5765286 1.00106317,14.5765286 C1.00106317,17.595442 1.00106317,20.6136937 1.00106317,23.6326071 C3.99441261,23.6326071 6.98776205,23.6326071 9.98111149,23.6326071" id="path3543" fill="#2189D2"></path>
                            <path d="M9.66032519,23.3090813 C9.66032519,20.2901679 9.66032519,17.2712545 9.66032519,14.2530027 C6.66697575,14.2530027 3.67362631,14.2530027 0.680276873,14.2530027 C0.680276873,17.2712545 0.680276873,20.2901679 0.680276873,23.3090813 C3.67362631,23.3090813 6.66697575,23.3090813 9.66032519,23.3090813" id="path3545" fill="#198DD5"></path>
                            <path d="M9.3395389,22.986217 C9.3395389,19.9673036 9.3395389,16.9483902 9.3395389,13.9294768 C6.34684546,13.9294768 3.35284002,13.9294768 0.359490575,13.9294768 C0.359490575,16.9483902 0.359490575,19.9673036 0.359490575,22.986217 C3.35284002,22.986217 6.34684546,22.986217 9.3395389,22.986217" id="path3547" fill="#1291D9"></path>
                            <polygon id="path3549" fill="#0994DC" points="0.0387042772 13.6059509 9.01829339 13.6059509 9.01829339 22.6622279 0.0387042772 22.6622279"></polygon>
                            <path d="M15.4331665,16.194158 C15.4331665,13.1752446 15.4331665,10.1563313 15.4331665,7.13741786 C12.4398171,7.13741786 9.44646766,7.13741786 6.45311822,7.13741786 C6.45311822,10.1563313 6.45311822,13.1752446 6.45311822,16.194158 C9.44646766,16.194158 12.4398171,16.194158 15.4331665,16.194158" id="path3551" fill="#91D02D"></path>
                            <path d="M15.1123802,16.5170223 C15.1123802,13.4981089 15.1123802,10.4791955 15.1123802,7.46094375 C12.1190308,7.46094375 9.12568136,7.46094375 6.13233192,7.46094375 C6.13233192,10.4791955 6.13233192,13.4981089 6.13233192,16.5170223 C9.12568136,16.5170223 12.1190308,16.5170223 15.1123802,16.5170223" id="path3553" fill="#8ACD38"></path>
                            <path d="M14.7915939,16.8405482 C14.7915939,13.8216348 14.7915939,10.803383 14.7915939,7.78446964 C11.7982445,7.78446964 8.80489507,7.78446964 5.81154563,7.78446964 C5.81154563,10.803383 5.81154563,13.8216348 5.81154563,16.8405482 C8.80489507,16.8405482 11.7982445,16.8405482 14.7915939,16.8405482" id="path3555" fill="#83C944"></path>
                            <path d="M14.4708076,17.1640741 C14.4708076,14.1451607 14.4708076,11.1262473 14.4708076,8.10733393 C11.4774582,8.10733393 8.48476477,8.10733393 5.49141533,8.10733393 C5.49141533,11.1262473 5.49141533,14.1451607 5.49141533,17.1640741 C8.48476477,17.1640741 11.4774582,17.1640741 14.4708076,17.1640741" id="path3557" fill="#7BC650"></path>
                            <path d="M14.1500214,17.4876 C14.1500214,14.4686866 14.1500214,11.4497732 14.1500214,8.43085982 C11.1573279,8.43085982 8.16397848,8.43085982 5.17062904,8.43085982 C5.17062904,11.4497732 5.17062904,14.4686866 5.17062904,17.4876 C8.16397848,17.4876 11.1573279,17.4876 14.1500214,17.4876" id="path3559" fill="#74C25C"></path>
                            <path d="M13.8292351,17.8111259 C13.8292351,14.7922125 13.8292351,11.7732991 13.8292351,8.75438571 C10.8365416,8.75438571 7.84319218,8.75438571 4.84984274,8.75438571 C4.84984274,11.7732991 4.84984274,14.7922125 4.84984274,17.8111259 C7.84319218,17.8111259 10.8365416,17.8111259 13.8292351,17.8111259" id="path3561" fill="#6FC064"></path>
                            <path d="M13.5084488,18.1339902 C13.5084488,15.1157384 13.5084488,12.096825 13.5084488,9.07791161 C10.5157553,9.07791161 7.52240588,9.07791161 4.52905644,9.07791161 C4.52905644,12.096825 4.52905644,15.1157384 4.52905644,18.1339902 C7.52240588,18.1339902 10.5157553,18.1339902 13.5084488,18.1339902" id="path3563" fill="#68BC6F"></path>
                            <path d="M13.1883185,18.4575161 C13.1883185,15.4392643 13.1883185,12.4203509 13.1883185,9.4014375 C10.194969,9.4014375 7.20161958,9.4014375 4.20827014,9.4014375 C4.20827014,12.4203509 4.20827014,15.4392643 4.20827014,18.4575161 C7.20161958,18.4575161 10.194969,18.4575161 13.1883185,18.4575161" id="path3565" fill="#60B979"></path>
                            <path d="M12.8675322,18.7817036 C12.8675322,15.7621286 12.8675322,12.7432152 12.8675322,9.72496339 C9.87418273,9.72496339 6.88083328,9.72496339 3.88748384,9.72496339 C3.88748384,12.7432152 3.88748384,15.7621286 3.88748384,18.7817036 C6.88083328,18.7817036 9.87418273,18.7817036 12.8675322,18.7817036" id="path3567" fill="#59B683"></path>
                            <path d="M12.5467459,19.1045679 C12.5467459,16.0856545 12.5467459,13.0667411 12.5467459,10.0484893 C9.55339643,10.0484893 6.56004699,10.0484893 3.56669755,10.0484893 C3.56669755,13.0667411 3.56669755,16.0856545 3.56669755,19.1045679 C6.56004699,19.1045679 9.55339643,19.1045679 12.5467459,19.1045679" id="path3569" fill="#52B28B"></path>
                            <path d="M12.2259596,19.4280937 C12.2259596,16.4091804 12.2259596,13.390267 12.2259596,10.3720152 C9.23261013,10.3720152 6.23926069,10.3720152 3.24591125,10.3720152 C3.24591125,13.390267 3.24591125,16.4091804 3.24591125,19.4280937 C6.23926069,19.4280937 9.23261013,19.4280937 12.2259596,19.4280937" id="path3571" fill="#4BAF94"></path>
                            <path d="M11.9051733,19.7516196 C11.9051733,16.7327062 11.9051733,13.7137929 11.9051733,10.6948795 C8.91247984,10.6948795 5.9191304,10.6948795 2.92512495,10.6948795 C2.92512495,13.7137929 2.92512495,16.7327062 2.92512495,19.7516196 C5.9191304,19.7516196 8.91247984,19.7516196 11.9051733,19.7516196" id="path3573" fill="#44AC9D"></path>
                            <path d="M11.584387,20.0751455 C11.584387,17.0562321 11.584387,14.0373188 11.584387,11.0184054 C8.59103753,11.0184054 5.5983441,11.0184054 2.60499466,11.0184054 C2.60499466,14.0373188 2.60499466,17.0562321 2.60499466,20.0751455 C5.5983441,20.0751455 8.59103753,20.0751455 11.584387,20.0751455" id="path3575" fill="#3FAAA6"></path>
                            <path d="M11.2636007,20.3986714 C11.2636007,17.379758 11.2636007,14.3608446 11.2636007,11.3419312 C8.27090724,11.3419312 5.2775578,11.3419312 2.28420836,11.3419312 C2.28420836,14.3608446 2.28420836,17.379758 2.28420836,20.3986714 C5.2775578,20.3986714 8.27090724,20.3986714 11.2636007,20.3986714" id="path3577" fill="#37A8AE"></path>
                            <path d="M10.9428144,20.7215357 C10.9428144,17.7032839 10.9428144,14.6843705 10.9428144,11.6654571 C7.95012094,11.6654571 4.9567715,11.6654571 1.96342206,11.6654571 C1.96342206,14.6843705 1.96342206,17.7032839 1.96342206,20.7215357 C4.9567715,20.7215357 7.95012094,20.7215357 10.9428144,20.7215357" id="path3579" fill="#31A3B4"></path>
                            <path d="M10.6226841,21.0450616 C10.6226841,18.0261482 10.6226841,15.0078964 10.6226841,11.988983 C7.62933465,11.988983 4.63598521,11.988983 1.64263577,11.988983 C1.64263577,15.0078964 1.64263577,18.0261482 1.64263577,21.0450616 C4.63598521,21.0450616 7.62933465,21.0450616 10.6226841,21.0450616" id="path3581" fill="#2AA2BC"></path>
                            <path d="M10.3018978,21.3685875 C10.3018978,18.3503357 10.3018978,15.3307607 10.3018978,12.3125089 C7.30854835,12.3125089 4.31519891,12.3125089 1.32184947,12.3125089 C1.32184947,15.3307607 1.32184947,18.3503357 1.32184947,21.3685875 C4.31519891,21.3685875 7.30854835,21.3685875 10.3018978,21.3685875" id="path3583" fill="#229FC4"></path>
                            <path d="M9.98111149,21.6921134 C9.98111149,18.6732 9.98111149,15.6542866 9.98111149,12.6353732 C6.98776205,12.6353732 3.99441261,12.6353732 1.00106317,12.6353732 C1.00106317,15.6542866 1.00106317,18.6732 1.00106317,21.6921134 C3.99441261,21.6921134 6.98776205,21.6921134 9.98111149,21.6921134" id="path3585" fill="#1C9CC9"></path>
                            <path d="M9.66032519,22.0156393 C9.66032519,18.9967259 9.66032519,15.9778125 9.66032519,12.9595607 C6.66697575,12.9595607 3.67362631,12.9595607 0.680276873,12.9595607 C0.680276873,15.9778125 0.680276873,18.9967259 0.680276873,22.0156393 C3.67362631,22.0156393 6.66697575,22.0156393 9.66032519,22.0156393" id="path3587" fill="#1599D0"></path>
                            <path d="M9.3395389,22.3385036 C9.3395389,19.3202518 9.3395389,16.3013384 9.3395389,13.282425 C6.34684546,13.282425 3.35284002,13.282425 0.359490575,13.282425 C0.359490575,16.3013384 0.359490575,19.3202518 0.359490575,22.3385036 C3.35284002,22.3385036 6.34684546,22.3385036 9.3395389,22.3385036" id="path3589" fill="#1097D6"></path>
                            <polygon id="path3591" fill="#0994DC" points="0.0387042772 13.6059509 9.01829339 13.6059509 9.01829339 22.6622279 0.0387042772 22.6622279"></polygon>
                        </g>
                    </g>
                    <path d="M42.4616819,15.4361481 C42.1566397,15.1324704 41.8122372,14.873782 41.4284745,14.6653758 C41.0447117,14.4569695 40.6445489,14.2981838 40.2279859,14.1890187 C39.8114229,14.0798535 39.40142,14.0275865 38.9979771,14.0275865 C38.3190122,14.0302329 37.7187679,14.1195499 37.2005242,14.2948758 C36.6790005,14.4702017 36.2329173,14.7116883 35.8622746,15.0193356 C35.491632,15.3276445 35.1898698,15.6816044 34.9537081,16.0812151 C34.7175464,16.4814874 34.5404252,16.9055776 34.4289044,17.3581169 C34.3173836,17.8086713 34.2583431,18.2678267 34.2550631,18.7309517 C34.2517831,19.2013544 34.3075435,19.6638178 34.4223443,20.1242963 C34.5371451,20.5867597 34.7149224,21.0201124 34.9569881,21.4342785 C35.1997099,21.8444749 35.5113121,22.2083588 35.8852348,22.5259303 C36.2624375,22.8428401 36.7085207,23.0942508 37.2267644,23.2761928 C37.7417281,23.4581347 38.3321323,23.5514213 38.9979771,23.5547294 C39.40142,23.5547294 39.7989588,23.5077553 40.1919056,23.4157919 C40.5855085,23.3191972 40.9666472,23.1736437 41.3274498,22.9817776 C41.6875964,22.7866035 42.0188787,22.5424704 42.3245769,22.2447472 L44.0557733,23.9318454 C43.3413842,24.6357954 42.5568026,25.1650812 41.6974364,25.5230106 C40.8380703,25.8763088 39.9393438,26.0556044 38.9979771,26.0556044 C38.0008499,26.0516347 37.1119636,25.9133588 36.3247579,25.6414383 C35.5375523,25.3734874 34.8520274,24.9996794 34.2714632,24.5239838 C33.6876191,24.0476267 33.2054556,23.4984928 32.8249729,22.8798901 C32.4412101,22.2579794 32.1558481,21.5924026 31.9721668,20.8884526 C31.7852054,20.183841 31.6933648,19.4626826 31.69656,18.7309517 C31.6999248,18.0031838 31.7917655,17.2926178 31.9721668,16.5972687 C32.1525681,15.9058892 32.4313701,15.2541995 32.8020127,14.6494972 C33.1726554,14.0441267 33.6482588,13.5082249 34.2222629,13.0477463 C34.799547,12.588591 35.4817919,12.2240454 36.2755576,11.9627106 C37.0693233,11.7053454 37.9746098,11.5690544 38.9979771,11.5656986 C39.9983843,11.5624383 40.939751,11.7311481 41.8286374,12.0692294 C42.7175237,12.406649 43.5178495,12.928657 44.2328946,13.6299606 L42.4616819,15.4361481" id="path3987" fill="#231F20"></path>
                    <path d="M49.6947897,21.8676312 C48.9207042,21.8636615 48.2259952,21.7286937 47.6093508,21.4640442 C46.9894263,21.1994013 46.4646226,20.835524 46.0283794,20.3651213 C45.5921363,19.8986817 45.2575739,19.3594785 45.0279723,18.7441838 C44.7950906,18.1295442 44.6802898,17.4705901 44.6763538,16.7666401 C44.6802898,16.0587138 44.7950906,15.3971067 45.0214122,14.7818187 C45.2510139,14.1658624 45.5822962,13.6233379 46.0152594,13.1608812 C46.4515025,12.6937799 46.9795863,12.329896 47.5995107,12.0652531 C48.2227152,11.8045865 48.9279202,11.6682888 49.7151259,11.665649 C50.5056115,11.6682954 51.2108166,11.8045865 51.834021,12.0652531 C52.4572255,12.329896 52.9885893,12.6937799 53.4248324,13.1608812 C53.8610755,13.6233379 54.1956379,14.1658624 54.4252396,14.7818187 C54.6548412,15.3971067 54.7729221,16.0587138 54.7729221,16.7666401 C54.7696421,17.4705901 54.6515612,18.1295442 54.4147435,18.7441838 C54.1759578,19.3594785 53.8381154,19.8986817 53.3920322,20.3651213 C52.949229,20.835524 52.4145852,21.1994013 51.7907247,21.4640442 C51.1681763,21.7286937 50.4695313,21.8636549 49.6947897,21.8676312 L49.6947897,21.8676312 Z M49.7151259,19.6638111 C50.1185687,19.6605031 50.4819953,19.5784704 50.8073737,19.4190231 C51.132096,19.2569294 51.410898,19.038599 51.6404996,18.7680017 C51.8701013,18.4927665 52.0439425,18.1824727 52.1685834,17.8377754 C52.2899443,17.4944013 52.3516087,17.1371335 52.3516087,16.7666401 C52.3516087,16.3928254 52.2965043,16.0315945 52.1882636,15.6882138 C52.0767428,15.3468245 51.9127416,15.0391772 51.6897,14.7685865 C51.4699384,14.500629 51.1944164,14.2856133 50.8664141,14.129474 C50.5384117,13.9713499 50.154649,13.8912954 49.7151259,13.8879874 C49.2788827,13.8912954 48.89512,13.9713499 48.5638376,14.129474 C48.2358353,14.2856133 47.9603133,14.500629 47.7398957,14.7685865 C47.5207901,15.0391838 47.3535089,15.3468245 47.2419881,15.6882138 C47.1337474,16.0315879 47.077987,16.3928254 47.077987,16.7666401 C47.077987,17.1371335 47.1337474,17.4944013 47.2452682,17.8377754 C47.360069,18.1824727 47.5240702,18.4927665 47.7471118,18.7680017 C47.9701534,19.038599 48.2423953,19.2569294 48.5730217,19.4190231 C48.90168,19.5784704 49.2815067,19.6605031 49.7151259,19.6638111 L49.7151259,19.6638111 Z" id="path3989" fill="#231F20" fill-rule="nonzero"></path>
                    <path d="M61.5192744,19.6446245 C61.9069732,19.6446245 62.2644957,19.5784638 62.5984021,19.446149 C62.9296845,19.3171356 63.2216066,19.1246079 63.4748244,18.8765053 C63.7241062,18.6290642 63.9209076,18.3306794 64.0612926,17.9773745 C64.2029896,17.6267294 64.2712141,17.2297585 64.2751501,16.7864883 C64.2712141,16.3590901 64.2029896,15.9687419 64.0612926,15.614782 C63.9209076,15.2647919 63.7241062,14.959791 63.4748244,14.7057338 C63.2216066,14.4510151 62.9296845,14.2558344 62.5984021,14.1162419 C62.2644957,13.9806124 61.9069732,13.9084906 61.5192744,13.9084906 C61.1394477,13.9084906 60.7786451,13.9773044 60.4408027,14.1102874 C60.1029603,14.2419472 59.8044781,14.4344683 59.5453563,14.6858856 C59.2855784,14.9333201 59.0795929,15.2383276 58.9319919,15.5922808 C58.7843908,15.9462472 58.7089503,16.3432115 58.7050142,16.7864883 C58.7089503,17.2158713 58.7843908,17.6029115 58.9319919,17.9535633 C59.0795929,18.3015687 59.2855784,18.6025999 59.5453563,18.856657 C59.8044781,19.1080678 60.1029603,19.3032353 60.4408027,19.4388713 C60.7786451,19.5745008 61.1394477,19.6446245 61.5192744,19.6446245 L61.5192744,19.6446245 Z M56.1472519,25.7572129 L56.1472519,11.8833178 L58.390788,11.8833178 L58.5475731,13.2329963 C58.8007909,12.8459562 59.092713,12.5356624 59.4305554,12.3067463 C59.7644618,12.0751838 60.1219844,11.9104437 60.5064031,11.8112026 C60.8895099,11.7112933 61.2804887,11.662341 61.6773715,11.665649 C62.3950407,11.6682954 63.0549814,11.7840767 63.6617857,12.0123312 C64.2685901,12.2438937 64.7966739,12.5780053 65.2460371,13.0212754 C65.6980243,13.4612442 66.0457068,13.9971526 66.2956446,14.6289874 C66.5449264,15.2614838 66.6728473,15.9826356 66.6761273,16.7864883 C66.6728473,17.6293758 66.5475504,18.3710374 66.3022047,19.0088267 C66.0562029,19.6479392 65.7118004,20.183841 65.2689973,20.613224 C64.8261941,21.0406222 64.3040143,21.3648031 63.7044261,21.5831401 C63.1035257,21.7974942 62.4481771,21.906666 61.736412,21.906666 C61.4766341,21.906666 61.1919281,21.8742472 60.8862299,21.8041169 C60.5811877,21.7346481 60.2768015,21.6360687 59.9711033,21.5030856 C59.6699972,21.3707576 59.3944752,21.2053558 59.1412574,21.0108499 C58.8926316,20.8150142 58.6951742,20.5940374 58.5475731,20.3393187 L58.5475731,25.4938999 L56.1472519,25.7572129 L56.1472519,25.7572129 Z" id="path3991" fill="#231F20" fill-rule="nonzero"></path>
                    <path d="M73.4251037,19.6446245 C73.8114904,19.6446245 74.169013,19.5784638 74.5035754,19.446149 C74.8355138,19.3171356 75.1267799,19.1246079 75.3793417,18.8765053 C75.6286235,18.6290642 75.8254249,18.3306794 75.9671219,17.9773745 C76.1075069,17.6267294 76.1763874,17.2297585 76.1803234,16.7864883 C76.1763874,16.3590901 76.1075069,15.9687419 75.9671219,15.614782 C75.8254249,15.2647919 75.6286235,14.959791 75.3793417,14.7057338 C75.1267799,14.4510151 74.8355138,14.2558344 74.5035754,14.1162419 C74.169013,13.9806124 73.8114904,13.9084906 73.4251037,13.9084906 C73.0439649,13.9084906 72.6831624,13.9773044 72.3453199,14.1102874 C72.0074775,14.2419472 71.7096514,14.4344683 71.4498735,14.6858856 C71.1907517,14.9333201 70.9841102,15.2383276 70.8365091,15.5922808 C70.6889081,15.9462472 70.6134675,16.3432115 70.6101875,16.7864883 C70.6134675,17.2158713 70.6889081,17.6029115 70.8365091,17.9535633 C70.9841102,18.3015687 71.1907517,18.6025999 71.4498735,18.856657 C71.7096514,19.1080678 72.0074775,19.3032353 72.3453199,19.4388713 C72.6831624,19.5745008 73.0439649,19.6446245 73.4251037,19.6446245 L73.4251037,19.6446245 Z M68.0517692,25.7572129 L68.0517692,11.8833178 L70.2953053,11.8833178 L70.4527464,13.2329963 C70.7059642,12.8459562 70.9978863,12.5356624 71.3350727,12.3067463 C71.6696351,12.0751838 72.0271577,11.9104437 72.4109204,11.8112026 C72.7946832,11.7112933 73.185006,11.662341 73.5818888,11.665649 C74.3002139,11.6682954 74.9594987,11.7840767 75.566303,12.0123312 C76.1731074,12.2438937 76.7011911,12.5780053 77.1505544,13.0212754 C77.6031976,13.4612442 77.9515361,13.9971526 78.2008179,14.6289874 C78.4494437,15.2614838 78.5773646,15.9826356 78.5806446,16.7864883 C78.5773646,17.6293758 78.4527237,18.3710374 78.2067219,19.0088267 C77.9613762,19.6479392 77.6163177,20.183841 77.1735145,20.613224 C76.7307114,21.0406222 76.2091876,21.3648031 75.6095993,21.5831401 C75.008699,21.7974942 74.3526943,21.906666 73.6409292,21.906666 C73.3818074,21.906666 73.0971013,21.8742472 72.7914031,21.8041169 C72.486361,21.7346481 72.1819748,21.6360687 71.8762766,21.5030856 C71.5745144,21.3707576 71.2996485,21.2053558 71.0464306,21.0108499 C70.7971489,20.8150142 70.6003474,20.5940374 70.4527464,20.3393187 L70.4527464,25.4938999 L68.0517692,25.7572129 L68.0517692,25.7572129 Z" id="path3993" fill="#231F20" fill-rule="nonzero"></path>
                    <polyline id="path3995" fill="#231F20" points="79.9569425 25.7572129 79.9569425 11.8833178 82.3382395 11.8833178 82.3382395 25.4958847 79.9569425 25.7572129"></polyline>
                    <path d="M93.7422252,15.9124986 C93.8340659,16.9214495 93.7815855,17.8020553 93.5913441,18.5595954 C93.4011028,19.3171356 93.0862205,19.9456558 92.6499774,20.4511303 C92.2137343,20.9546067 91.6725304,21.3350374 91.0296458,21.5864481 C90.3867612,21.8405053 89.6553159,21.966204 88.8418701,21.966204 C88.0513844,21.9635576 87.3396193,21.8378588 86.7065748,21.5864481 C86.0735303,21.3350374 85.5323264,20.980416 85.0829632,20.523907 C84.6336,20.0647517 84.2891975,19.5248736 84.0497558,18.9036312 C83.8103141,18.2784124 83.6889532,17.593649 83.6856732,16.8453713 C83.6889532,16.0587138 83.807034,15.3468312 84.0497558,14.7083803 C84.2891975,14.0666213 84.64016,13.5174808 85.0993633,13.0616401 C85.5585666,12.6011549 86.1161706,12.2471951 86.7754553,11.9990924 C87.43146,11.754966 88.1825854,11.6285924 89.0189914,11.6252844 C89.5175549,11.6252844 90.0193985,11.681521 90.5278022,11.7973088 C91.0394858,11.9163981 91.5249293,12.092379 91.9841326,12.3265945 C92.4433359,12.5614651 92.8434988,12.8565419 93.1911813,13.2138097 L91.6718744,14.762632 C91.481633,14.570766 91.2264472,14.3841861 90.9345251,14.2485633 C90.642603,14.1129272 90.3310008,14.0103781 90.0029984,13.9382629 C89.6749961,13.8654861 89.3601138,13.8284428 89.0583517,13.8284428 C88.4941876,13.8317508 88.0021841,13.9217227 87.5921812,14.0997017 C87.1788982,14.2783356 86.8508958,14.5237919 86.6081741,14.8340856 C86.3687324,15.1457026 86.2178513,15.5062785 86.1653709,15.9125053 L93.7422252,15.9125053 L93.7422252,15.9124986 Z M86.2047312,17.9171749 C86.3260921,18.3412651 86.5163334,18.6945633 86.7787353,18.9757397 C87.0378572,19.2569294 87.3527394,19.4693053 87.716822,19.6115508 C88.0841847,19.7531347 88.4843475,19.8225969 88.9205907,19.8225969 C89.383074,19.8225969 89.7930769,19.7531281 90.1505995,19.6115508 C90.508122,19.4693053 90.8000441,19.2569294 91.0230857,18.9757397 C91.2461273,18.6945633 91.3838883,18.3412651 91.4396487,17.9171749 L86.2047312,17.9171749 L86.2047312,17.9171749 Z" id="path3997" fill="#231F20" fill-rule="nonzero"></path>
                    <path d="M119.877452,15.9124986 C119.969293,16.9214495 119.916813,17.8020553 119.726571,18.5595954 C119.53633,19.3171356 119.220792,19.9456558 118.785205,20.4511303 C118.348961,20.9546067 117.807758,21.3350374 117.164873,21.5864481 C116.521988,21.8405053 115.789887,21.966204 114.977097,21.966204 C114.185956,21.9635576 113.474847,21.8378588 112.841146,21.5864481 C112.208757,21.3350374 111.667554,20.980416 111.217534,20.523907 C110.768171,20.0647517 110.423769,19.5248736 110.184327,18.9036312 C109.945541,18.2784124 109.823524,17.593649 109.8209,16.8453713 C109.823524,16.0587138 109.942261,15.3468312 110.184327,14.7083803 C110.423769,14.0666213 110.774731,13.5174808 111.233934,13.0616401 C111.693138,12.6011549 112.250742,12.2471951 112.910682,11.9990924 C113.566687,11.754966 114.317157,11.6285924 115.154219,11.6252844 C115.652782,11.6252844 116.154626,11.681521 116.663029,11.7973088 C117.174713,11.9163981 117.660157,12.092379 118.118704,12.3265945 C118.578563,12.5614651 118.978726,12.8565419 119.326408,13.2138097 L117.807102,14.762632 C117.61686,14.570766 117.361674,14.3841861 117.069752,14.2485633 C116.77783,14.1129272 116.465572,14.0103781 116.13757,13.9382629 C115.809567,13.8654861 115.495341,13.8284428 115.193579,13.8284428 C114.628759,13.8317508 114.136755,13.9217227 113.726752,14.0997017 C113.313469,14.2783356 112.985467,14.5237919 112.742745,14.8340856 C112.50396,15.1457026 112.353079,15.5062785 112.299942,15.9125053 L119.877452,15.9125053 L119.877452,15.9124986 Z M112.339958,17.9171749 C112.460663,18.3412651 112.651561,18.6945633 112.913963,18.9757397 C113.173084,19.2569294 113.487967,19.4693053 113.852049,19.6115508 C114.218756,19.7531347 114.619575,19.8225969 115.055162,19.8225969 C115.518301,19.8225969 115.928304,19.7531281 116.285171,19.6115508 C116.642693,19.4693053 116.934615,19.2569294 117.158313,18.9757397 C117.380699,18.6945633 117.519116,18.3412651 117.574876,17.9171749 L112.339958,17.9171749 L112.339958,17.9171749 Z" id="path3999" fill="#231F20" fill-rule="nonzero"></path>
                    <path d="M103.256261,18.8401169 L101.957372,22.206374 L97.9727995,11.8833178 L100.571234,11.8833178 C102.361471,16.5211838 101.466025,14.2029124 103.256261,18.8401169" id="path4001" fill="#231F20"></path>
                    <path d="M108.598108,25.4991928 L103.342854,11.8833111 L105.941289,11.8833111 C107.731525,16.5211772 109.521762,21.1597049 111.311999,25.7975776 L108.598108,25.4991928" id="path4003" fill="#231F20"></path>
                    <path d="M95.3153245,25.4991928 L100.571234,11.8833111 L97.9727995,11.8833111 C96.1825627,16.5211772 94.3923259,21.1597049 92.602089,25.7975776 L95.3153245,25.4991928" id="path4005" fill="#231F20"></path>
                    <polyline id="path4007" fill="#231F20" points="100.686035 25.4991928 105.941289 11.8833111 103.342854 11.8833111 98.0876003 25.4991928 100.686035 25.4991928"></polyline>
                    <path d="M126.658573,19.6446245 C127.04496,19.6446245 127.402482,19.5784638 127.737045,19.446149 C128.068983,19.3171356 128.360249,19.1246079 128.613467,18.8765053 C128.862093,18.6290642 129.058894,18.3306794 129.200591,17.9773745 C129.341632,17.6267294 129.409857,17.2297585 129.413137,16.7864883 C129.409857,16.3590901 129.341632,15.9687419 129.200591,15.614782 C129.058894,15.2647919 128.862093,14.959791 128.613467,14.7057338 C128.360249,14.4510151 128.068983,14.2558344 127.737045,14.1162419 C127.402482,13.9806124 127.04496,13.9084906 126.658573,13.9084906 C126.277434,13.9084906 125.916632,13.9773044 125.578789,14.1102874 C125.240947,14.2419472 124.943121,14.4344683 124.683343,14.6858856 C124.424221,14.9333201 124.217579,15.2383276 124.070634,15.5922808 C123.923033,15.9462472 123.847593,16.3432115 123.843657,16.7864883 C123.847593,17.2158713 123.923033,17.6029115 124.070634,17.9535633 C124.217579,18.3015687 124.424221,18.6025999 124.683343,18.856657 C124.943121,19.1080678 125.240947,19.3032353 125.578789,19.4388713 C125.916632,19.5745008 126.277434,19.6446245 126.658573,19.6446245 L126.658573,19.6446245 Z M121.285894,25.4998478 L121.285894,11.8833111 L123.529431,11.8833111 L123.686216,13.2329897 C123.939433,12.8459495 124.231356,12.5356558 124.568542,12.3067397 C124.90376,12.0751772 125.260627,11.910437 125.64439,11.811196 C126.028152,11.7112933 126.419131,11.6623344 126.815358,11.665649 C127.533683,11.6682954 128.192968,11.7840701 128.799772,12.0123245 C129.406577,12.243887 129.93466,12.5779986 130.38468,13.0212754 C130.836667,13.4612442 131.184349,13.997146 131.434287,14.6289808 C131.683569,15.2614772 131.810834,15.982629 131.81477,16.7864817 C131.810834,17.6293692 131.686193,18.3710308 131.440847,19.0088201 C131.194845,19.6479326 130.850443,20.183841 130.406984,20.6132174 C129.964181,21.0406156 129.442657,21.3648031 128.843069,21.5831335 C128.242168,21.7974942 127.586164,21.9066594 126.875055,21.9066594 C126.615277,21.9066594 126.330571,21.8742406 126.024872,21.8041103 C125.71983,21.7346415 125.415444,21.636062 125.109746,21.503079 C124.807984,21.3707576 124.533118,21.2053558 124.2799,21.0108499 C124.030618,20.8150076 123.833817,20.5940308 123.686216,20.3393187 L123.686216,25.7572129 L121.285894,25.4998477 L121.285894,25.4998478 Z" id="path4009" fill="#231F20" fill-rule="nonzero"></path>
                </g>
            </g>
        </g>
    </g>
</svg>